<svg width="258" height="69" viewBox="0 0 258 69" fill="none" xmlns="http://www.w3.org/2000/svg">
<path d="M16.6296 40.672C13.4936 40.672 10.4882 40.2613 7.61356 39.44C4.7389 38.5813 2.42423 37.48 0.669563 36.136L3.74956 29.304C5.42956 30.4987 7.40823 31.488 9.68556 32.272C12.0002 33.0187 14.3336 33.392 16.6856 33.392C18.4776 33.392 19.9149 33.224 20.9976 32.888C22.1176 32.5147 22.9389 32.0107 23.4616 31.376C23.9842 30.7413 24.2456 30.0133 24.2456 29.192C24.2456 28.1467 23.8349 27.3253 23.0136 26.728C22.1922 26.0933 21.1096 25.5893 19.7656 25.216C18.4216 24.8053 16.9282 24.432 15.2856 24.096C13.6802 23.7227 12.0562 23.2747 10.4136 22.752C8.80823 22.2293 7.33356 21.5573 5.98956 20.736C4.64556 19.9147 3.54423 18.832 2.68556 17.488C1.86423 16.144 1.45356 14.4267 1.45356 12.336C1.45356 10.096 2.0509 8.06133 3.24556 6.232C4.47756 4.36533 6.3069 2.89066 8.73356 1.808C11.1976 0.687999 14.2776 0.127999 17.9736 0.127999C20.4376 0.127999 22.8642 0.426665 25.2536 1.024C27.6429 1.584 29.7522 2.44266 31.5816 3.6L28.7816 10.488C26.9522 9.44267 25.1229 8.67733 23.2936 8.192C21.4642 7.66933 19.6722 7.408 17.9176 7.408C16.1629 7.408 14.7256 7.61333 13.6056 8.024C12.4856 8.43467 11.6829 8.976 11.1976 9.648C10.7122 10.2827 10.4696 11.0293 10.4696 11.888C10.4696 12.896 10.8802 13.7173 11.7016 14.352C12.5229 14.9493 13.6056 15.4347 14.9496 15.808C16.2936 16.1813 17.7682 16.5547 19.3736 16.928C21.0162 17.3013 22.6402 17.7307 24.2456 18.216C25.8882 18.7013 27.3816 19.3547 28.7256 20.176C30.0696 20.9973 31.1522 22.08 31.9736 23.424C32.8322 24.768 33.2616 26.4667 33.2616 28.52C33.2616 30.7227 32.6456 32.7387 31.4136 34.568C30.1816 36.3973 28.3336 37.872 25.8696 38.992C23.4429 40.112 20.3629 40.672 16.6296 40.672ZM39.4605 40V0.799997H48.5325V40H39.4605ZM70.7155 40.672C67.5795 40.672 64.5742 40.2613 61.6995 39.44C58.8248 38.5813 56.5102 37.48 54.7555 36.136L57.8355 29.304C59.5155 30.4987 61.4942 31.488 63.7715 32.272C66.0862 33.0187 68.4195 33.392 70.7715 33.392C72.5635 33.392 74.0008 33.224 75.0835 32.888C76.2035 32.5147 77.0248 32.0107 77.5475 31.376C78.0702 30.7413 78.3315 30.0133 78.3315 29.192C78.3315 28.1467 77.9208 27.3253 77.0995 26.728C76.2782 26.0933 75.1955 25.5893 73.8515 25.216C72.5075 24.8053 71.0142 24.432 69.3715 24.096C67.7662 23.7227 66.1422 23.2747 64.4995 22.752C62.8942 22.2293 61.4195 21.5573 60.0755 20.736C58.7315 19.9147 57.6302 18.832 56.7715 17.488C55.9502 16.144 55.5395 14.4267 55.5395 12.336C55.5395 10.096 56.1368 8.06133 57.3315 6.232C58.5635 4.36533 60.3928 2.89066 62.8195 1.808C65.2835 0.687999 68.3635 0.127999 72.0595 0.127999C74.5235 0.127999 76.9502 0.426665 79.3395 1.024C81.7288 1.584 83.8382 2.44266 85.6675 3.6L82.8675 10.488C81.0382 9.44267 79.2088 8.67733 77.3795 8.192C75.5502 7.66933 73.7582 7.408 72.0035 7.408C70.2488 7.408 68.8115 7.61333 67.6915 8.024C66.5715 8.43467 65.7688 8.976 65.2835 9.648C64.7982 10.2827 64.5555 11.0293 64.5555 11.888C64.5555 12.896 64.9662 13.7173 65.7875 14.352C66.6088 14.9493 67.6915 15.4347 69.0355 15.808C70.3795 16.1813 71.8542 16.5547 73.4595 16.928C75.1022 17.3013 76.7262 17.7307 78.3315 18.216C79.9742 18.7013 81.4675 19.3547 82.8115 20.176C84.1555 20.9973 85.2382 22.08 86.0595 23.424C86.9182 24.768 87.3475 26.4667 87.3475 28.52C87.3475 30.7227 86.7315 32.7387 85.4995 34.568C84.2675 36.3973 82.4195 37.872 79.9555 38.992C77.5288 40.112 74.4488 40.672 70.7155 40.672ZM101.12 40V8.192H88.5756V0.799997H122.736V8.192H110.192V40H101.12ZM135.961 16.592H154.833V23.648H135.961V16.592ZM136.633 32.72H157.969V40H127.617V0.799997H157.241V8.08H136.633V32.72ZM165.187 40V0.799997H172.691L189.379 28.464H185.403L201.811 0.799997H209.259L209.371 40H200.859L200.803 13.848H202.371L189.267 35.856H185.179L171.795 13.848H173.699V40H165.187ZM213.519 40L230.991 0.799997H239.951L257.479 40H247.959L233.623 5.392H237.207L222.815 40H213.519ZM222.255 31.6L224.663 24.712H244.823L247.287 31.6H222.255ZM112.602 68V51.2H119.682C121.474 51.2 123.05 51.552 124.41 52.256C125.786 52.96 126.85 53.944 127.602 55.208C128.37 56.472 128.754 57.936 128.754 59.6C128.754 61.264 128.37 62.728 127.602 63.992C126.85 65.256 125.786 66.24 124.41 66.944C123.05 67.648 121.474 68 119.682 68H112.602ZM115.002 65.912H119.538C120.93 65.912 122.13 65.648 123.138 65.12C124.162 64.592 124.954 63.856 125.514 62.912C126.074 61.952 126.354 60.848 126.354 59.6C126.354 58.336 126.074 57.232 125.514 56.288C124.954 55.344 124.162 54.608 123.138 54.08C122.13 53.552 120.93 53.288 119.538 53.288H115.002V65.912ZM134.614 58.448H143.254V60.488H134.614V58.448ZM134.83 65.912H144.622V68H132.43V51.2H144.286V53.288H134.83V65.912Z" fill="#679B9B"/>
<path d="M11.4829 68.288C10.1549 68.288 8.93091 68.08 7.81091 67.664C6.70691 67.232 5.73891 66.624 4.90691 65.84C4.09091 65.056 3.45091 64.136 2.98691 63.08C2.53891 62.024 2.31491 60.864 2.31491 59.6C2.31491 58.336 2.53891 57.176 2.98691 56.12C3.45091 55.064 4.09891 54.144 4.93091 53.36C5.76291 52.576 6.73891 51.976 7.85891 51.56C8.97891 51.128 10.2109 50.912 11.5549 50.912C13.0429 50.912 14.3789 51.16 15.5629 51.656C16.7629 52.152 17.7709 52.872 18.5869 53.816L16.0909 56.12C15.4829 55.48 14.8189 55.008 14.0989 54.704C13.3789 54.384 12.5949 54.224 11.7469 54.224C10.9309 54.224 10.1869 54.352 9.51491 54.608C8.84291 54.864 8.25891 55.232 7.76291 55.712C7.28291 56.192 6.90691 56.76 6.63491 57.416C6.37891 58.072 6.25091 58.8 6.25091 59.6C6.25091 60.384 6.37891 61.104 6.63491 61.76C6.90691 62.416 7.28291 62.992 7.76291 63.488C8.25891 63.968 8.83491 64.336 9.49091 64.592C10.1629 64.848 10.8989 64.976 11.6989 64.976C12.4669 64.976 13.2109 64.856 13.9309 64.616C14.6669 64.36 15.3789 63.936 16.0669 63.344L18.2749 66.152C17.3629 66.84 16.2989 67.368 15.0829 67.736C13.8829 68.104 12.6829 68.288 11.4829 68.288ZM14.7229 65.648V59.336H18.2749V66.152L14.7229 65.648ZM25.4625 57.968H33.5505V60.992H25.4625V57.968ZM25.7505 64.88H34.8945V68H21.8865V51.2H34.5825V54.32H25.7505V64.88ZM43.5081 68.288C42.1641 68.288 40.8761 68.112 39.6441 67.76C38.4121 67.392 37.4201 66.92 36.6681 66.344L37.9881 63.416C38.7081 63.928 39.5561 64.352 40.5321 64.688C41.5241 65.008 42.5241 65.168 43.5321 65.168C44.3001 65.168 44.9161 65.096 45.3801 64.952C45.8601 64.792 46.2121 64.576 46.4361 64.304C46.6601 64.032 46.7721 63.72 46.7721 63.368C46.7721 62.92 46.5961 62.568 46.2441 62.312C45.8921 62.04 45.4281 61.824 44.8521 61.664C44.2761 61.488 43.6361 61.328 42.9321 61.184C42.2441 61.024 41.5481 60.832 40.8441 60.608C40.1561 60.384 39.5241 60.096 38.9481 59.744C38.3721 59.392 37.9001 58.928 37.5321 58.352C37.1801 57.776 37.0041 57.04 37.0041 56.144C37.0041 55.184 37.2601 54.312 37.7721 53.528C38.3001 52.728 39.0841 52.096 40.1241 51.632C41.1801 51.152 42.5001 50.912 44.0841 50.912C45.1401 50.912 46.1801 51.04 47.2041 51.296C48.2281 51.536 49.1321 51.904 49.9161 52.4L48.7161 55.352C47.9321 54.904 47.1481 54.576 46.3641 54.368C45.5801 54.144 44.8121 54.032 44.0601 54.032C43.3081 54.032 42.6921 54.12 42.2121 54.296C41.7321 54.472 41.3881 54.704 41.1801 54.992C40.9721 55.264 40.8681 55.584 40.8681 55.952C40.8681 56.384 41.0441 56.736 41.3961 57.008C41.7481 57.264 42.2121 57.472 42.7881 57.632C43.3641 57.792 43.9961 57.952 44.6841 58.112C45.3881 58.272 46.0841 58.456 46.7721 58.664C47.4761 58.872 48.1161 59.152 48.6921 59.504C49.2681 59.856 49.7321 60.32 50.0841 60.896C50.4521 61.472 50.6361 62.2 50.6361 63.08C50.6361 64.024 50.3721 64.888 49.8441 65.672C49.3161 66.456 48.5241 67.088 47.4681 67.568C46.4281 68.048 45.1081 68.288 43.5081 68.288ZM56.5384 68V54.368H51.1624V51.2H65.8024V54.368H60.4264V68H56.5384ZM64.8426 68L72.3306 51.2H76.1706L83.6826 68H79.6026L73.4586 53.168H74.9946L68.8266 68H64.8426ZM68.5866 64.4L69.6186 61.448H78.2586L79.3146 64.4H68.5866ZM76.0506 49.904C75.6346 49.904 75.2666 49.832 74.9466 49.688C74.6266 49.528 74.3386 49.352 74.0826 49.16C73.8266 48.952 73.5866 48.776 73.3626 48.632C73.1386 48.472 72.9146 48.392 72.6906 48.392C72.3706 48.392 72.1066 48.512 71.8986 48.752C71.6906 48.976 71.5706 49.304 71.5386 49.736H69.6426C69.6746 48.664 69.9386 47.816 70.4346 47.192C70.9306 46.552 71.6026 46.232 72.4506 46.232C72.8666 46.232 73.2346 46.312 73.5546 46.472C73.8746 46.616 74.1626 46.792 74.4186 47C74.6906 47.208 74.9386 47.392 75.1626 47.552C75.3866 47.696 75.6026 47.768 75.8106 47.768C76.1466 47.768 76.4186 47.656 76.6266 47.432C76.8346 47.192 76.9466 46.872 76.9626 46.472H78.8586C78.8426 47.496 78.5786 48.328 78.0666 48.968C77.5706 49.592 76.8986 49.904 76.0506 49.904ZM93.3512 68.288C92.0232 68.288 90.7912 68.072 89.6552 67.64C88.5352 67.208 87.5592 66.6 86.7272 65.816C85.9112 65.032 85.2712 64.112 84.8072 63.056C84.3592 62 84.1352 60.848 84.1352 59.6C84.1352 58.352 84.3592 57.2 84.8072 56.144C85.2712 55.088 85.9192 54.168 86.7512 53.384C87.5832 52.6 88.5592 51.992 89.6792 51.56C90.7992 51.128 92.0152 50.912 93.3272 50.912C94.6552 50.912 95.8712 51.128 96.9752 51.56C98.0952 51.992 99.0632 52.6 99.8792 53.384C100.711 54.168 101.359 55.088 101.823 56.144C102.287 57.184 102.519 58.336 102.519 59.6C102.519 60.848 102.287 62.008 101.823 63.08C101.359 64.136 100.711 65.056 99.8792 65.84C99.0632 66.608 98.0952 67.208 96.9752 67.64C95.8712 68.072 94.6632 68.288 93.3512 68.288ZM93.3272 64.976C94.0792 64.976 94.7672 64.848 95.3912 64.592C96.0312 64.336 96.5912 63.968 97.0712 63.488C97.5512 63.008 97.9192 62.44 98.1752 61.784C98.4472 61.128 98.5832 60.4 98.5832 59.6C98.5832 58.8 98.4472 58.072 98.1752 57.416C97.9192 56.76 97.5512 56.192 97.0712 55.712C96.6072 55.232 96.0552 54.864 95.4152 54.608C94.7752 54.352 94.0792 54.224 93.3272 54.224C92.5752 54.224 91.8792 54.352 91.2392 54.608C90.6152 54.864 90.0632 55.232 89.5832 55.712C89.1032 56.192 88.7272 56.76 88.4552 57.416C88.1992 58.072 88.0712 58.8 88.0712 59.6C88.0712 60.384 88.1992 61.112 88.4552 61.784C88.7272 62.44 89.0952 63.008 89.5592 63.488C90.0392 63.968 90.5992 64.336 91.2392 64.592C91.8792 64.848 92.5752 64.976 93.3272 64.976ZM154.613 68V51.2H162.821C164.933 51.2 166.517 51.6 167.573 52.4C168.645 53.2 169.181 54.256 169.181 55.568C169.181 56.448 168.965 57.216 168.533 57.872C168.101 58.512 167.509 59.008 166.757 59.36C166.005 59.712 165.141 59.888 164.165 59.888L164.621 58.904C165.677 58.904 166.613 59.08 167.429 59.432C168.245 59.768 168.877 60.272 169.325 60.944C169.789 61.616 170.021 62.44 170.021 63.416C170.021 64.856 169.453 65.984 168.317 66.8C167.181 67.6 165.509 68 163.301 68H154.613ZM158.477 65.072H163.013C164.021 65.072 164.781 64.912 165.293 64.592C165.821 64.256 166.085 63.728 166.085 63.008C166.085 62.304 165.821 61.784 165.293 61.448C164.781 61.096 164.021 60.92 163.013 60.92H158.189V58.088H162.341C163.285 58.088 164.005 57.928 164.501 57.608C165.013 57.272 165.269 56.768 165.269 56.096C165.269 55.44 165.013 54.952 164.501 54.632C164.005 54.296 163.285 54.128 162.341 54.128H158.477V65.072ZM181.125 68.288C179.797 68.288 178.565 68.072 177.429 67.64C176.309 67.208 175.333 66.6 174.501 65.816C173.685 65.032 173.045 64.112 172.581 63.056C172.133 62 171.909 60.848 171.909 59.6C171.909 58.352 172.133 57.2 172.581 56.144C173.045 55.088 173.693 54.168 174.525 53.384C175.357 52.6 176.333 51.992 177.453 51.56C178.573 51.128 179.789 50.912 181.101 50.912C182.429 50.912 183.645 51.128 184.749 51.56C185.869 51.992 186.837 52.6 187.653 53.384C188.485 54.168 189.133 55.088 189.597 56.144C190.061 57.184 190.293 58.336 190.293 59.6C190.293 60.848 190.061 62.008 189.597 63.08C189.133 64.136 188.485 65.056 187.653 65.84C186.837 66.608 185.869 67.208 184.749 67.64C183.645 68.072 182.437 68.288 181.125 68.288ZM181.101 64.976C181.853 64.976 182.541 64.848 183.165 64.592C183.805 64.336 184.365 63.968 184.845 63.488C185.325 63.008 185.693 62.44 185.949 61.784C186.221 61.128 186.357 60.4 186.357 59.6C186.357 58.8 186.221 58.072 185.949 57.416C185.693 56.76 185.325 56.192 184.845 55.712C184.381 55.232 183.829 54.864 183.189 54.608C182.549 54.352 181.853 54.224 181.101 54.224C180.349 54.224 179.653 54.352 179.013 54.608C178.389 54.864 177.837 55.232 177.357 55.712C176.877 56.192 176.501 56.76 176.229 57.416C175.973 58.072 175.845 58.8 175.845 59.6C175.845 60.384 175.973 61.112 176.229 61.784C176.501 62.44 176.869 63.008 177.333 63.488C177.813 63.968 178.373 64.336 179.013 64.592C179.653 64.848 180.349 64.976 181.101 64.976ZM193.215 68V51.2H197.103V64.832H205.527V68H193.215ZM213.149 68.288C211.805 68.288 210.517 68.112 209.285 67.76C208.053 67.392 207.061 66.92 206.309 66.344L207.629 63.416C208.349 63.928 209.197 64.352 210.173 64.688C211.165 65.008 212.165 65.168 213.173 65.168C213.941 65.168 214.557 65.096 215.021 64.952C215.501 64.792 215.853 64.576 216.077 64.304C216.301 64.032 216.413 63.72 216.413 63.368C216.413 62.92 216.237 62.568 215.885 62.312C215.533 62.04 215.069 61.824 214.493 61.664C213.917 61.488 213.277 61.328 212.573 61.184C211.885 61.024 211.189 60.832 210.485 60.608C209.797 60.384 209.165 60.096 208.589 59.744C208.013 59.392 207.541 58.928 207.173 58.352C206.821 57.776 206.645 57.04 206.645 56.144C206.645 55.184 206.901 54.312 207.413 53.528C207.941 52.728 208.725 52.096 209.765 51.632C210.821 51.152 212.141 50.912 213.725 50.912C214.781 50.912 215.821 51.04 216.845 51.296C217.869 51.536 218.773 51.904 219.557 52.4L218.357 55.352C217.573 54.904 216.789 54.576 216.005 54.368C215.221 54.144 214.453 54.032 213.701 54.032C212.949 54.032 212.333 54.12 211.853 54.296C211.373 54.472 211.029 54.704 210.821 54.992C210.613 55.264 210.509 55.584 210.509 55.952C210.509 56.384 210.685 56.736 211.037 57.008C211.389 57.264 211.853 57.472 212.429 57.632C213.005 57.792 213.637 57.952 214.325 58.112C215.029 58.272 215.725 58.456 216.413 58.664C217.117 58.872 217.757 59.152 218.333 59.504C218.909 59.856 219.373 60.32 219.725 60.896C220.093 61.472 220.277 62.2 220.277 63.08C220.277 64.024 220.013 64.888 219.485 65.672C218.957 66.456 218.165 67.088 217.109 67.568C216.069 68.048 214.749 68.288 213.149 68.288ZM220.725 68L228.213 51.2H232.053L239.565 68H235.485L229.341 53.168H230.877L224.709 68H220.725ZM224.469 64.4L225.501 61.448H234.141L235.197 64.4H224.469ZM246.828 68.288C245.484 68.288 244.196 68.112 242.964 67.76C241.732 67.392 240.74 66.92 239.988 66.344L241.308 63.416C242.028 63.928 242.876 64.352 243.852 64.688C244.844 65.008 245.844 65.168 246.852 65.168C247.62 65.168 248.236 65.096 248.7 64.952C249.18 64.792 249.532 64.576 249.756 64.304C249.98 64.032 250.092 63.72 250.092 63.368C250.092 62.92 249.916 62.568 249.564 62.312C249.212 62.04 248.748 61.824 248.172 61.664C247.596 61.488 246.956 61.328 246.252 61.184C245.564 61.024 244.868 60.832 244.164 60.608C243.476 60.384 242.844 60.096 242.268 59.744C241.692 59.392 241.22 58.928 240.852 58.352C240.5 57.776 240.324 57.04 240.324 56.144C240.324 55.184 240.58 54.312 241.092 53.528C241.62 52.728 242.404 52.096 243.444 51.632C244.5 51.152 245.82 50.912 247.404 50.912C248.46 50.912 249.5 51.04 250.524 51.296C251.548 51.536 252.452 51.904 253.236 52.4L252.036 55.352C251.252 54.904 250.468 54.576 249.684 54.368C248.9 54.144 248.132 54.032 247.38 54.032C246.628 54.032 246.012 54.12 245.532 54.296C245.052 54.472 244.708 54.704 244.5 54.992C244.292 55.264 244.188 55.584 244.188 55.952C244.188 56.384 244.364 56.736 244.716 57.008C245.068 57.264 245.532 57.472 246.108 57.632C246.684 57.792 247.316 57.952 248.004 58.112C248.708 58.272 249.404 58.456 250.092 58.664C250.796 58.872 251.436 59.152 252.012 59.504C252.588 59.856 253.052 60.32 253.404 60.896C253.772 61.472 253.956 62.2 253.956 63.08C253.956 64.024 253.692 64.888 253.164 65.672C252.636 66.456 251.844 67.088 250.788 67.568C249.748 68.048 248.428 68.288 246.828 68.288Z" fill="#015958"/>
</svg>
